<svg xmlns="http://www.w3.org/2000/svg" viewBox="0 0 467.19 198.23"><defs><style>.cls-1{fill:#fff;}.cls-2{fill:none;stroke:#fff;stroke-miterlimit:10;stroke-width:1.5px;}</style></defs><title>ipso_facto_white</title><g id="Layer_2" data-name="Layer 2"><g id="Layer_1-2" data-name="Layer 1"><path class="cls-1" d="M53.83,154.32v4.28a4.52,4.52,0,0,1,1.71-1.66,4.81,4.81,0,0,1,2.35-.53A5,5,0,0,1,62,158.49a9.9,9.9,0,0,1,0,10.8,4.51,4.51,0,0,1-2.17,1.47,8.54,8.54,0,0,1-2.7.45,9,9,0,0,1-4.76-1.34q-2.19-1.34-2.19-5.13V152.5H52a1.83,1.83,0,0,1,1.82,1.82Zm6.1,9.41a4.9,4.9,0,0,0-.8-3,2.55,2.55,0,0,0-2.19-1.12,2.7,2.7,0,0,0-2.3,1.07,5.15,5.15,0,0,0-.8,3,5.57,5.57,0,0,0,.75,3.26,2.61,2.61,0,0,0,2.25,1.12,2.66,2.66,0,0,0,2.3-1.12A5.57,5.57,0,0,0,59.93,163.73Z"/><path class="cls-1" d="M74.84,166.56h2.67A5.83,5.83,0,0,1,75.27,170a6.8,6.8,0,0,1-4.17,1.23,6,6,0,0,1-4.76-2,8,8,0,0,1-1.71-5.51,7.94,7.94,0,0,1,1.66-5.35,6,6,0,0,1,4.76-2,6.41,6.41,0,0,1,5,1.93,8.15,8.15,0,0,1,1.71,5.51v.59a.94.94,0,0,1-.05.37H68.42a3.69,3.69,0,0,0,.8,2.46,2.53,2.53,0,0,0,2.09.86,3,3,0,0,0,1.55-.38.73.73,0,0,0,.29-.18l.29-.29a1.16,1.16,0,0,1,.4-.43A1.59,1.59,0,0,1,74.84,166.56Zm-6.42-4.17h5.46a3.47,3.47,0,0,0-.75-2.14,2.57,2.57,0,0,0-2-.75,2.61,2.61,0,0,0-1.93.75A3.07,3.07,0,0,0,68.42,162.39Z"/><path class="cls-1" d="M85.84,170.95V164a8.81,8.81,0,0,1,.62-3.5,5.8,5.8,0,0,1,1.68-2.27,6.65,6.65,0,0,1,2.38-1.18,10.57,10.57,0,0,1,2.81-.37h.54v3.8H92.63a3.14,3.14,0,0,0-2.3.75,3.22,3.22,0,0,0-.75,2.35v7.33Z"/><path class="cls-1" d="M104.81,166.56h2.67a5.83,5.83,0,0,1-2.25,3.42,6.8,6.8,0,0,1-4.17,1.23,6,6,0,0,1-4.76-2,8,8,0,0,1-1.71-5.51,7.94,7.94,0,0,1,1.66-5.35,6,6,0,0,1,4.76-2,6.41,6.41,0,0,1,5,1.93,8.15,8.15,0,0,1,1.71,5.51v.59a.93.93,0,0,1-.05.37H98.39a3.69,3.69,0,0,0,.8,2.46,2.53,2.53,0,0,0,2.09.86,3,3,0,0,0,1.55-.38.73.73,0,0,0,.29-.18l.29-.29a1.16,1.16,0,0,1,.4-.43A1.59,1.59,0,0,1,104.81,166.56Zm-6.42-4.17h5.46a3.47,3.47,0,0,0-.75-2.14,2.57,2.57,0,0,0-2-.75,2.61,2.61,0,0,0-1.93.75A3.07,3.07,0,0,0,98.39,162.39Z"/><path class="cls-1" d="M121.38,170.95h-3.69v-9.09a2.2,2.2,0,0,0-.77-1.87,2.82,2.82,0,0,0-1.74-.59,2.7,2.7,0,0,0-1.71.59,2.24,2.24,0,0,0-.75,1.87v9.09H109v-8.34q0-3.64,1.9-4.87a8.31,8.31,0,0,1,4.2-1.34,10.8,10.8,0,0,1,2.41.27,5,5,0,0,1,2.14,1.07,4.74,4.74,0,0,1,1.9-1,10.55,10.55,0,0,1,2.27-.35,8,8,0,0,1,4.33,1.23q2,1.23,2,5v8.34h-1.87a1.74,1.74,0,0,1-1.82-1.82v-7.27a2.2,2.2,0,0,0-.78-1.87,2.86,2.86,0,0,0-3.48,0,2.2,2.2,0,0,0-.78,1.87v9.09Z"/><path class="cls-1" d="M140.89,170.36a6.61,6.61,0,0,1-2.38.72,21.37,21.37,0,0,1-2.22.13,5.61,5.61,0,0,1-3.37-1,4,4,0,0,1-1.44-3.45,3.72,3.72,0,0,1,1.31-3.21,7.55,7.55,0,0,1,3.34-1.28,3.2,3.2,0,0,0,.64-.08,7.93,7.93,0,0,1,.86-.13q2.35-.32,2.35-1.39a1,1,0,0,0-.83-1,5.52,5.52,0,0,0-1.52-.24,3.9,3.9,0,0,0-1.34.21,1.46,1.46,0,0,0-.86.8h-3.58a4.12,4.12,0,0,1,1.5-2.73,6.16,6.16,0,0,1,4.12-1.23,8.08,8.08,0,0,1,4.49,1,3.44,3.44,0,0,1,1.55,3v4.87a6.15,6.15,0,0,1-.78,3.34A4.74,4.74,0,0,1,140.89,170.36Zm-.86-6.58a10.09,10.09,0,0,1-2.09.7l-1.23.27a3.15,3.15,0,0,0-1.39.7,2.17,2.17,0,0,0-.37,1.17,1.73,1.73,0,0,0,.48,1.28,2,2,0,0,0,1.39.43,3,3,0,0,0,3.21-3.21Z"/><path class="cls-1" d="M144.73,170.95V164a8.81,8.81,0,0,1,.62-3.5,5.8,5.8,0,0,1,1.68-2.27,6.66,6.66,0,0,1,2.38-1.18,10.58,10.58,0,0,1,2.81-.37h.54v3.8h-1.23a3.14,3.14,0,0,0-2.3.75,3.22,3.22,0,0,0-.75,2.35v7.33Z"/><path class="cls-1" d="M157.56,156.72V162l4.55-5.24h4.49l-5.08,5.45,5.13,8.77h-4.49l-2.62-4.81q-.8-1.45-1.39-1.23c-.39.14-.59.36-.59.64v5.4h-3.74v-18.4h1.93a1.76,1.76,0,0,1,1.28.53,1.7,1.7,0,0,1,.54,1.23Z"/><path class="cls-1" d="M177.07,170.36a6.61,6.61,0,0,1-2.38.72,21.37,21.37,0,0,1-2.22.13,5.61,5.61,0,0,1-3.37-1,4,4,0,0,1-1.44-3.45,3.72,3.72,0,0,1,1.31-3.21,7.55,7.55,0,0,1,3.34-1.28,3.2,3.2,0,0,0,.64-.08,7.93,7.93,0,0,1,.86-.13q2.35-.32,2.35-1.39a1,1,0,0,0-.83-1,5.52,5.52,0,0,0-1.52-.24,3.9,3.9,0,0,0-1.34.21,1.46,1.46,0,0,0-.86.8H168a4.12,4.12,0,0,1,1.5-2.73,6.16,6.16,0,0,1,4.12-1.23,8.08,8.08,0,0,1,4.49,1,3.44,3.44,0,0,1,1.55,3v4.87a6.15,6.15,0,0,1-.78,3.34A4.74,4.74,0,0,1,177.07,170.36Zm-.86-6.58a10.09,10.09,0,0,1-2.09.7l-1.23.27a3.15,3.15,0,0,0-1.39.7,2.17,2.17,0,0,0-.37,1.17,1.73,1.73,0,0,0,.48,1.28,2,2,0,0,0,1.39.43,3,3,0,0,0,3.21-3.21Z"/><path class="cls-1" d="M184.55,154.32v4.28a4.52,4.52,0,0,1,1.71-1.66,4.81,4.81,0,0,1,2.35-.53,5,5,0,0,1,4.12,2.09,9.9,9.9,0,0,1,0,10.8,4.51,4.51,0,0,1-2.17,1.47,8.53,8.53,0,0,1-2.7.45,9,9,0,0,1-4.76-1.34q-2.19-1.34-2.19-5.13V152.5h1.82a1.83,1.83,0,0,1,1.82,1.82Zm6.1,9.41a4.9,4.9,0,0,0-.8-3,2.55,2.55,0,0,0-2.19-1.12,2.7,2.7,0,0,0-2.3,1.07,5.15,5.15,0,0,0-.8,3,5.57,5.57,0,0,0,.75,3.26,2.61,2.61,0,0,0,2.25,1.12,2.66,2.66,0,0,0,2.3-1.12A5.57,5.57,0,0,0,190.64,163.73Z"/><path class="cls-1" d="M195.82,152.55h1.92a1.8,1.8,0,0,1,1.28.51,1.67,1.67,0,0,1,.53,1.26v16.63h-3.74Z"/><path class="cls-1" d="M210.79,166.56h2.67a5.83,5.83,0,0,1-2.25,3.42,6.8,6.8,0,0,1-4.17,1.23,6,6,0,0,1-4.76-2,8,8,0,0,1-1.71-5.51,7.94,7.94,0,0,1,1.66-5.35,6,6,0,0,1,4.76-2,6.41,6.41,0,0,1,5,1.93,8.15,8.15,0,0,1,1.71,5.51v.59a.94.94,0,0,1-.05.37h-9.25a3.69,3.69,0,0,0,.8,2.46,2.53,2.53,0,0,0,2.09.86,3,3,0,0,0,1.55-.38.73.73,0,0,0,.29-.18l.29-.29a1.16,1.16,0,0,1,.4-.43A1.59,1.59,0,0,1,210.79,166.56Zm-6.42-4.17h5.46a3.47,3.47,0,0,0-.75-2.14,2.57,2.57,0,0,0-2-.75,2.61,2.61,0,0,0-1.93.75A3.07,3.07,0,0,0,204.37,162.39Z"/><path class="cls-2" d="M302.5.85l19.16,2.92a17.65,17.65,0,0,1,12,7.27A17.65,17.65,0,0,1,337,24.61l-1.7,11.18L298,30.12Zm-6.32,41.5,19.16,2.91a18.38,18.38,0,0,1,15.33,20.85L311.88,189.55l-37.24-5.67Z"/><path class="cls-2" d="M327.09,191.86,349.29,46.09q2.92-19.16,14.48-27.19,11-7.59,32.77-4.27A54.81,54.81,0,0,1,405,16.46a59.33,59.33,0,0,1,9,1.91l-4.45,29.26-9.58-1.46q-7.46-1.13-11,.51-3,1.73-4,8.11l-1.46,9.58,22.88,3.48-1.21,8a17.92,17.92,0,0,1-20.31,15.42l-5.32-.81L363.27,197.37Z"/><path class="cls-1" d="M0,54.66H9.38a8.53,8.53,0,0,1,6.25,2.61,8.54,8.54,0,0,1,2.6,6.25V69H0ZM0,75H9.38a8.53,8.53,0,0,1,6.25,2.6,8.53,8.53,0,0,1,2.6,6.25v60.42H0Z"/><path class="cls-1" d="M40.06,160.92a8.89,8.89,0,0,1-8.85,8.86H22.35V104.93Q22.35,86.7,33,80.06A43.06,43.06,0,0,1,56.2,73.41a37.51,37.51,0,0,1,13.15,2.47A24.54,24.54,0,0,1,79.9,83.05q7.81,10.15,7.81,26,0,16.41-7.81,26.56-7.81,9.91-20.05,9.9a26.49,26.49,0,0,1-11.46-2.34,19.61,19.61,0,0,1-8.33-8.07Zm29.69-51q0-10.16-3.91-15.63t-11.2-5.47A12.67,12.67,0,0,0,43.7,94.25q-3.65,5-3.65,15.63,0,9.9,3.91,14.84,3.91,5.47,11.2,5.47a12.43,12.43,0,0,0,10.68-5.47Q69.75,119.25,69.75,109.88Z"/><path class="cls-1" d="M89.28,121.34H107a9.58,9.58,0,0,0,3.91,7.81q3.91,2.61,10.42,2.61a16.77,16.77,0,0,0,8.07-1.82,5.54,5.54,0,0,0,3.13-4.95q0-4.69-10.94-7a50.05,50.05,0,0,1-7-1.56q-13.81-3.38-18.49-8.07-5.21-4.69-5.21-12.5A20.74,20.74,0,0,1,98.4,79.41q7.81-6,20.31-6,13.54,0,21.62,6a22.92,22.92,0,0,1,8.07,16.93H137.2a8.27,8.27,0,0,1-7.55-4.43l-2.08-2.08q-3.13-2.34-8.6-2.34-5.21,0-7.81,1.56a5.26,5.26,0,0,0-2.34,4.69q0,4.17,13.54,7a27.29,27.29,0,0,0,2.74.78,10.24,10.24,0,0,0,2.21.26q13.28,3.39,18.49,7.81,4.94,4.69,4.95,12.5,0,11.46-8.33,17.71-7.81,5.73-23.44,5.73-14.84,0-22.14-6-7.56-6-7.55-17.45Z"/><path class="cls-1" d="M162.21,138a25.73,25.73,0,0,1-7.81-12.63A58.12,58.12,0,0,1,152,108.83a52.31,52.31,0,0,1,2-14.06,29,29,0,0,1,6.12-11.72,27,27,0,0,1,17.45-9.25,40.17,40.17,0,0,1,19.27,1.69A26.55,26.55,0,0,1,211.43,89a43.23,43.23,0,0,1,4.43,20.05A49.64,49.64,0,0,1,214,123.42a36.72,36.72,0,0,1-4.69,10.16,26,26,0,0,1-15.89,10.68,35.45,35.45,0,0,1-17.32.39Q167.41,142.69,162.21,138Zm12.5-45.84q-5.47,6-4.95,17.84t4.43,16.54a11.67,11.67,0,0,0,5.47,3.51,12.43,12.43,0,0,0,7.94.26q4-1.17,7.16-5.86t3.39-15.11q0-9.37-3-14.06t-6.9-6a12.66,12.66,0,0,0-7.81-.13A13.56,13.56,0,0,0,174.71,92.17Z"/><path class="cls-1" d="M218.72,144.25V72.89q0-9.38,4.95-14.07Q228.36,54.4,239,54.4a27,27,0,0,1,4.17.26,29,29,0,0,1,4.43.26V69.25h-4.69q-3.65,0-5.21,1c-.87.7-1.3,2.08-1.3,4.17v4.69h11.2v3.91A8.67,8.67,0,0,1,239,91.91h-2.6v52.35Z"/><path class="cls-1" d="M293.21,141.39a32,32,0,0,1-11.59,3.51,103.75,103.75,0,0,1-10.81.65,27.29,27.29,0,0,1-16.41-5.08q-7-5.08-7-16.8,0-10.94,6.38-15.63T270,101.8a15.21,15.21,0,0,0,3.12-.39q1.82-.39,4.17-.65Q288.78,99.2,288.78,94q0-3.9-4-5.08a26.75,26.75,0,0,0-7.42-1.17,19,19,0,0,0-6.51,1,7.1,7.1,0,0,0-4.17,3.91H249.19a20.06,20.06,0,0,1,7.29-13.28q7-6,20.05-6,14.58,0,21.88,4.95A16.72,16.72,0,0,1,306,92.95v23.7q0,10.42-3.78,16.28A23.1,23.1,0,0,1,293.21,141.39Zm-4.17-32a49.15,49.15,0,0,1-10.16,3.39l-6,1.3q-4.69,1.31-6.77,3.39a10.61,10.61,0,0,0-1.82,5.73,8.45,8.45,0,0,0,2.34,6.25q2.34,2.09,6.77,2.08,7.29,0,11.46-4.17T289,115.87Z"/><path class="cls-1" d="M357.76,122.9h13q-2.87,10.94-10.94,16.67-8.07,6-20.31,6-14.84,0-23.18-9.64Q308,126.55,308,109.09q0-16.66,8.07-26,8.33-9.63,23.18-9.64,15.63,0,24.22,9.38a35.74,35.74,0,0,1,6.77,13.28H352a15.33,15.33,0,0,0-2.61-3.91q-3.39-3.64-9.64-3.65a12.69,12.69,0,0,0-9.38,3.65q-4.69,5.21-4.69,17.19t4.69,16.93q3.38,4.17,10.16,4.17a14.74,14.74,0,0,0,7.55-1.82,3.64,3.64,0,0,0,1.43-.91l1.43-1.43a11.54,11.54,0,0,1,2.08-2.08A7.2,7.2,0,0,1,357.76,122.9Z"/><path class="cls-1" d="M403.38,144.25a135.71,135.71,0,0,1-18.62-.26q-10-.78-10-12.76V54.66h9.37a8.24,8.24,0,0,1,6,2.61,8.54,8.54,0,0,1,2.6,6.25V75.24h10.68v3.65a8.41,8.41,0,0,1-2.61,6.38,8.75,8.75,0,0,1-6.25,2.47H392.7v38.55q0,4.43,5.21,4.43h5.47Z"/><path class="cls-1" d="M413.54,138a25.73,25.73,0,0,1-7.82-12.63,58.12,58.12,0,0,1-2.34-16.54,52.37,52.37,0,0,1,2-14.06,29,29,0,0,1,6.12-11.72,27,27,0,0,1,17.45-9.25,40.16,40.16,0,0,1,19.27,1.69A26.55,26.55,0,0,1,462.76,89a43.22,43.22,0,0,1,4.43,20.05,49.64,49.64,0,0,1-1.82,14.33,36.7,36.7,0,0,1-4.69,10.16,26,26,0,0,1-15.89,10.68,35.45,35.45,0,0,1-17.32.39Q418.74,142.69,413.54,138ZM426,92.17q-5.47,6-4.95,17.84t4.43,16.54a11.68,11.68,0,0,0,5.47,3.51,12.43,12.43,0,0,0,7.94.26q4-1.17,7.16-5.86t3.39-15.11q0-9.37-3-14.06t-6.9-6a12.65,12.65,0,0,0-7.81-.13A13.56,13.56,0,0,0,426,92.17Z"/></g></g></svg>