<svg xmlns="http://www.w3.org/2000/svg" viewBox="0 0 523.09 772.53"><defs><style>.cls-1{fill:#f20574;}</style></defs><title>Asset 1</title><g id="Layer_2" data-name="Layer 2"><g id="Layer_1-2" data-name="Layer 1"><path class="cls-1" d="M523.09,254.39C523.09,113.9,406,0,261.55,0S0,113.9,0,254.39a248,248,0,0,0,10.14,70.35c42.09,156.1,231.78,421.34,249.52,445.94v1.85l.67-.92.66.92v-1.82C281.28,743,526,406,522.65,269,522.93,264.18,523.09,259.31,523.09,254.39ZM263.43,405.91c-90.21,0-163.35-70.77-163.35-158.06S173.22,89.79,263.43,89.79s163.35,70.77,163.35,158.06S353.65,405.91,263.43,405.91Z"/></g></g></svg>